<svg xmlns="http://www.w3.org/2000/svg" width="500" height="500"><circle cx="226" cy="19" r="19"/><circle cx="275" cy="19" r="19"/><path d="M165 44c-36.01 0-65 28.99-65 65v240c0 36.01 28.99 65 65 65h170c36.01 0 65-28.99 65-65V109c0-36.01-28.99-65-65-65H165zm53 14h65c6.094 0 11 4.906 11 11v19c0 6.094-4.906 11-11 11h-65c-6.094 0-11-4.906-11-11V69c0-6.094 4.906-11 11-11zm-48 54h161c18.836 0 34 15.164 34 34v43c0 18.836-15.164 34-34 34H170c-18.836 0-34-15.164-34-34v-43c0-18.836 15.164-34 34-34zm-4 207a30 30 0 0 1 30 30 30 30 0 0 1-30 30 30 30 0 0 1-30-30 30 30 0 0 1 30-30zm168 0a30 30 0 0 1 30 30 30 30 0 0 1-30 30 30 30 0 0 1-30-30 30 30 0 0 1 30-30z"/><path fill="none" stroke="#000" stroke-width="36" d="m96 530 66-98h176l66 98"/></svg>